<svg width="299" height="465" viewBox="0 0 299 465" fill="none" xmlns="http://www.w3.org/2000/svg">
<rect x="122" y="161.183" width="186" height="20.5721" transform="rotate(-25.8789 122 161.183)" fill="#99FFE0"/>
<rect x="30" y="116" width="88" height="211" fill="#FD6035"/>
<rect x="30" y="340" width="27" height="125" fill="#99FFE0"/>
<rect x="91" y="340" width="27" height="125" fill="#99FFE0"/>
<rect x="50.7866" y="0.354843" width="88" height="86" transform="rotate(16.3904 50.7866 0.354843)" fill="#FFD69D"/>
<rect x="201.179" y="25" width="88" height="114" transform="rotate(23.3474 201.179 25)" fill="#C4C4C4"/>
<rect x="256.257" y="63.2906" width="15" height="16" transform="rotate(26.0262 256.257 63.2906)" fill="white"/>
<rect x="243.007" y="94.7702" width="15" height="16" transform="rotate(26.0262 243.007 94.7702)" fill="white"/>
<rect x="226.007" y="129.77" width="15" height="16" transform="rotate(26.0262 226.007 129.77)" fill="white"/>
<rect x="53.7635" y="20.653" width="19" height="18" transform="rotate(16.3927 53.7635 20.653)" fill="#696969"/>
<rect x="102.507" y="34.793" width="19" height="18" transform="rotate(16.3927 102.507 34.793)" fill="#696969"/>
<rect y="116" width="21" height="178" fill="#99FFE0"/>
</svg>
